<svg xmlns="http://www.w3.org/2000/svg" width="22" height="20.167" viewBox="0 0 22 20.167">
  <path id="fi-rr-envelope" d="M17.417,1H4.583A4.589,4.589,0,0,0,0,5.583v11a4.589,4.589,0,0,0,4.583,4.583H17.417A4.589,4.589,0,0,0,22,16.583v-11A4.589,4.589,0,0,0,17.417,1ZM4.583,2.833H17.417a2.75,2.75,0,0,1,2.548,1.73l-7.02,7.021a2.756,2.756,0,0,1-3.89,0L2.035,4.563a2.75,2.75,0,0,1,2.548-1.73Zm12.833,16.5H4.583a2.75,2.75,0,0,1-2.75-2.75V6.958L7.759,12.88a4.59,4.59,0,0,0,6.483,0l5.925-5.922v9.625A2.75,2.75,0,0,1,17.417,19.333Z" transform="translate(0 -1)" fill="#3554d1"/>
</svg>
