<svg xmlns="http://www.w3.org/2000/svg" width="20.96" height="20.96" viewBox="0 0 20.96 20.96">
  <path id="fi-rr-phone-call" d="M11.377.875A.875.875,0,0,1,12.251,0,8.757,8.757,0,0,1,21,8.747a.875.875,0,1,1-1.75,0,7.006,7.006,0,0,0-7-7,.875.875,0,0,1-.875-.875Zm.875,4.374a3.5,3.5,0,0,1,3.5,3.5.875.875,0,0,0,1.75,0A5.254,5.254,0,0,0,12.251,3.5a.875.875,0,0,0,0,1.75Zm7.954,9.394a2.712,2.712,0,0,1,0,3.83l-.8.918C12.245,26.249-5.189,8.819,1.565,1.632L2.571.757A2.7,2.7,0,0,1,6.356.792C6.383.819,8,2.925,8,2.925A2.712,2.712,0,0,1,8,6.671L6.985,7.944a11.18,11.18,0,0,0,6.063,6.075L14.329,13A2.712,2.712,0,0,1,18.074,13S20.179,14.615,20.206,14.642ZM19,15.914s-2.093-1.61-2.12-1.638a.962.962,0,0,0-1.355,0c-.024.024-1.788,1.43-1.788,1.43a.875.875,0,0,1-.856.133,13.129,13.129,0,0,1-7.716-7.7.875.875,0,0,1,.127-.875S6.7,5.5,6.722,5.472a.962.962,0,0,0,0-1.355C6.7,4.091,5.085,2,5.085,2a.962.962,0,0,0-1.321.034L2.758,2.9c-4.935,5.934,10.173,20.2,15.373,15.29l.8-.918A.981.981,0,0,0,19,15.914Z" transform="translate(-0.039 0.002)" fill="#868b98"/>
</svg>
